<?xml version="1.0" encoding="utf-8"?>
<!-- Generator: Adobe Illustrator 26.0.1, SVG Export Plug-In . SVG Version: 6.00 Build 0)  -->
<svg version="1.1" id="Layer_1" xmlns="http://www.w3.org/2000/svg" xmlns:xlink="http://www.w3.org/1999/xlink" x="0px" y="0px"
	 viewBox="0 0 595.28 841.89" style="enable-background:new 0 0 595.28 841.89;" xml:space="preserve">
<style type="text/css">
	.st0{fill:url(#SVGID_1_);}
	.st1{fill:#C49A6C;}
	.st2{fill:url(#SVGID_00000182508153691368341930000010095037144593688219_);}
	.st3{fill:url(#SVGID_00000062176223281978748320000014231540327462599314_);}
	.st4{fill:#8EC640;}
	.st5{fill:url(#SVGID_00000092453152707213266250000003219151839010682536_);}
	.st6{fill:url(#SVGID_00000040575779820231109540000002472139203488962467_);}
	.st7{fill:url(#SVGID_00000163071565726823262320000010448524918431856266_);}
	.st8{fill:url(#SVGID_00000007411938594002761920000006077637136181833891_);}
	.st9{fill:#ED1C24;}
	.st10{fill:#8DC63F;}
	.st11{fill:url(#SVGID_00000081631280782819131230000011579850091572420286_);}
</style>
<linearGradient id="SVGID_1_" gradientUnits="userSpaceOnUse" x1="208.8048" y1="74.6841" x2="287.6176" y2="74.6841">
	<stop  offset="0.4548" style="stop-color:#DA1C5C;stop-opacity:0.99"/>
	<stop  offset="0.696" style="stop-color:#EC008C"/>
	<stop  offset="0.8432" style="stop-color:#EE2A7B"/>
</linearGradient>
<path class="st0" d="M275.62,109.92H220.8c-6.6,0-12-5.4-12-12V51.45c0-6.6,5.4-12,12-12h54.81c6.6,0,12,5.4,12,12v46.47
	C287.62,104.52,282.22,109.92,275.62,109.92z"/>
<path class="st1" d="M287.59,646.54V504.07H208.8v142.47l24.76,77.66c11.03-3.91,22-7.89,33.01-11.71L287.59,646.54z"/>
<linearGradient id="SVGID_00000113355400693720346770000007796800545939173566_" gradientUnits="userSpaceOnUse" x1="233.5627" y1="741.2989" x2="266.5677" y2="741.2989">
	<stop  offset="0.591" style="stop-color:#000000;stop-opacity:0.99"/>
	<stop  offset="0.6719" style="stop-color:#FFFFFF"/>
	<stop  offset="0.7628" style="stop-color:#000000"/>
</linearGradient>
<path style="fill:url(#SVGID_00000113355400693720346770000007796800545939173566_);" d="M266.57,712.49
	c-11,3.82-21.97,7.8-33.01,11.71l14.64,45.91L266.57,712.49z"/>
<linearGradient id="SVGID_00000098908399041670140580000014259803118112337841_" gradientUnits="userSpaceOnUse" x1="208.8048" y1="402.2799" x2="235.0674" y2="402.2799">
	<stop  offset="7.667733e-08" style="stop-color:#00A64F"/>
	<stop  offset="1" style="stop-color:#8DC63F"/>
</linearGradient>
<path style="fill:url(#SVGID_00000098908399041670140580000014259803118112337841_);" d="M235.07,644.63c0,0,0,26.27-13.13,26.22
	c-11.57-0.04-13.13-26.22-13.13-26.22V133.71h26.26V644.63z"/>
<path class="st4" d="M261.33,644.63c0,0,1.58,26.22-13.13,26.22c-11.57,0-13.13-26.22-13.13-26.22V133.71h26.26V644.63z"/>
<linearGradient id="SVGID_00000018196365583574948850000008033043092867481755_" gradientUnits="userSpaceOnUse" x1="261.33" y1="402.2799" x2="287.5927" y2="402.2799">
	<stop  offset="0" style="stop-color:#8DC63F;stop-opacity:0.99"/>
	<stop  offset="1" style="stop-color:#00A64F"/>
</linearGradient>
<path style="fill:url(#SVGID_00000018196365583574948850000008033043092867481755_);" d="M287.59,644.63c0,0,0,26.27-13.13,26.22
	c-11.57-0.04-13.13-26.22-13.13-26.22V133.71h26.26V644.63z"/>
<linearGradient id="SVGID_00000180339175838882646410000013213036506795147703_" gradientUnits="userSpaceOnUse" x1="208.8297" y1="130.3862" x2="287.6176" y2="130.3862">
	<stop  offset="0" style="stop-color:#ED1C24;stop-opacity:0.99"/>
	<stop  offset="1" style="stop-color:#FFF200"/>
</linearGradient>
<rect x="208.83" y="85.19" style="fill:url(#SVGID_00000180339175838882646410000013213036506795147703_);" width="78.79" height="90.38"/>
<linearGradient id="SVGID_00000034780104128850904900000007495413752442260099_" gradientUnits="userSpaceOnUse" x1="331.358" y1="74.6841" x2="410.1707" y2="74.6841">
	<stop  offset="0.4548" style="stop-color:#DA1C5C;stop-opacity:0.99"/>
	<stop  offset="0.696" style="stop-color:#EC008C"/>
	<stop  offset="0.8432" style="stop-color:#EE2A7B"/>
</linearGradient>
<path style="fill:url(#SVGID_00000034780104128850904900000007495413752442260099_);" d="M398.17,109.92h-54.81c-6.6,0-12-5.4-12-12
	V51.45c0-6.6,5.4-12,12-12h54.81c6.6,0,12,5.4,12,12v46.47C410.17,104.52,404.77,109.92,398.17,109.92z"/>
<path class="st1" d="M410.15,646.54V504.07h-78.79v142.47l24.76,77.66c11.03-3.91,22-7.89,33.01-11.71L410.15,646.54z"/>
<linearGradient id="SVGID_00000054967200627325772850000008438313518197945507_" gradientUnits="userSpaceOnUse" x1="356.1159" y1="741.2989" x2="389.1209" y2="741.2989">
	<stop  offset="0.591" style="stop-color:#000000;stop-opacity:0.99"/>
	<stop  offset="0.6719" style="stop-color:#FFFFFF"/>
	<stop  offset="0.7628" style="stop-color:#000000"/>
</linearGradient>
<path style="fill:url(#SVGID_00000054967200627325772850000008438313518197945507_);" d="M389.12,712.49
	c-11,3.82-21.97,7.8-33.01,11.71l14.64,45.91L389.12,712.49z"/>
<path class="st9" d="M357.62,644.63c0,0,0,26.27-13.13,26.22c-11.57-0.04-13.13-26.22-13.13-26.22V133.71h26.26V644.63z"/>
<path class="st10" d="M383.88,644.63c0,0,1.58,26.22-13.13,26.22c-11.57,0-13.13-26.22-13.13-26.22V133.71h26.26V644.63z"/>
<path class="st9" d="M410.15,644.63c0,0,0,26.27-13.13,26.22c-11.57-0.04-13.13-26.22-13.13-26.22V133.71h26.26V644.63z"/>
<linearGradient id="SVGID_00000008867018795845343330000009788785701237191315_" gradientUnits="userSpaceOnUse" x1="331.3828" y1="130.3862" x2="410.1707" y2="130.3862">
	<stop  offset="0" style="stop-color:#ED1C24;stop-opacity:0.99"/>
	<stop  offset="1" style="stop-color:#FFF200"/>
</linearGradient>
<rect x="331.38" y="85.19" style="fill:url(#SVGID_00000008867018795845343330000009788785701237191315_);" width="78.79" height="90.38"/>
</svg>
