<?xml version="1.0" encoding="utf-8"?>
<!-- Generator: Adobe Illustrator 26.0.1, SVG Export Plug-In . SVG Version: 6.00 Build 0)  -->
<svg version="1.1" xmlns="http://www.w3.org/2000/svg" xmlns:xlink="http://www.w3.org/1999/xlink" x="0px" y="0px"
	 viewBox="0 0 1384.8 1125.32" style="enable-background:new 0 0 1384.8 1125.32;" xml:space="preserve">
<style type="text/css">
	.st0{fill:url(#SVGID_1_);}
	.st1{fill:#262826;}
	.st2{fill:#F4F5F7;}
	.st3{display:none;}
	.st4{display:inline;fill:#F4F5F7;}
	.st5{display:inline;fill:#3A3A3C;}
	.st6{fill:#818386;}
	.st7{fill:#6DC8C1;}
	.st8{fill:#991E31;}
	.st9{fill:#E6C327;}
	.st10{fill:#26A294;}
	.st11{fill:#CEAF2C;}
	.st12{fill:#105B4E;}
	.st13{fill:#B72227;}
	.st14{fill:#A81F24;}
	.st15{fill:#0A7A6C;}
	.st16{fill:#4A3B2D;}
	.st17{fill:#6D8AC6;}
	.st18{fill:#A3CBD4;}
	.st19{fill:#050606;}
	.st20{fill:#49392D;}
	.st21{fill:#85BAC7;}
	.st22{fill:#A2DDF1;}
	.st23{fill:#613F2F;}
	.st24{fill:#F6F6F7;}
	.st25{fill:#A5DEF4;}
	.st26{fill:#93CAEE;}
	.st27{fill:#F4F6F8;}
	.st28{fill:#8BC046;}
	.st29{fill:#F3EFF0;}
	.st30{fill:#B5E3F0;}
	.st31{fill:#8A8B8E;}
	.st32{fill:#171717;}
</style>
<g id="Layer_1">
	<linearGradient id="SVGID_1_" gradientUnits="userSpaceOnUse" x1="694.0104" y1="289.1644" x2="696.605" y2="65.6649">
		<stop  offset="0" style="stop-color:#FDC020"/>
		<stop  offset="0.9814" style="stop-color:#F2652E"/>
	</linearGradient>
	<rect x="1.7" y="3.4" class="st0" width="1384.8" height="555.45"/>
	<rect x="1.7" y="426.76" class="st1" width="1385.11" height="698.35"/>
	<polygon class="st2" points="331.9,868.96 18.37,398.3 21.31,397.08 344.79,841.7 	"/>
	<path class="st2" d="M937.15,814.63c-25.37,32.01,32.52,47.13,32.52,47.13l278.98-433.2l-7.55-2.83
		C1241.09,425.72,962.52,782.62,937.15,814.63z"/>
	<g id="Layer_3" class="st3">
		<path class="st4" d="M124.55,936.2"/>
		
			<rect x="71.31" y="916.62" transform="matrix(0.9111 -0.4122 0.4122 0.9111 -405.6487 127.7114)" class="st4" width="43.87" height="175.26"/>
		<polyline class="st5" points="133.74,1028.54 515.04,730.17 607.9,801.35 287.84,1125.12 156.84,1124.73 133.74,1028.54 		"/>
		<path class="st4" d="M380.45,1031.43c-1.61-1.6-98.36-120.17-98.36-120.17l-18.56,15.71l99.53,122.04L380.45,1031.43z"/>
		<polyline class="st5" points="133.74,1026.1 156.84,1124.73 287.84,1125.12 607.9,801.35 512.2,733.15 133.74,1026.1 		"/>
	</g>
	<polygon class="st6" points="740.2,732.46 138.94,425.74 96.58,429 637.66,823.02 	"/>
	<rect x="450.34" y="323.11" class="st7" width="44.43" height="266.55"/>
	<polygon class="st8" points="480.6,603.06 611.04,671 611.04,171 480.6,238.94 	"/>
	<rect x="320.12" y="330.77" class="st9" width="53.62" height="189.96"/>
	<polygon class="st10" points="341.57,531.05 450.34,587.91 450.34,323.11 341.57,356.45 	"/>
	<polygon class="st11" points="210.02,462.14 320.12,519.48 320.12,330.77 210.02,383.31 	"/>
	<rect x="701.57" y="254.17" class="st12" width="65.87" height="335.49"/>
	<polygon class="st13" points="730.94,608.55 611.04,671 611.04,171 730.94,233.45 	"/>
	<rect x="836.38" y="355.28" class="st14" width="61.28" height="165.45"/>
	<polygon class="st15" points="863.39,539.56 767.44,589.54 767.44,254.17 863.39,303.64 	"/>
	<polygon class="st13" points="1024.8,455.51 897.65,521.75 897.65,355.28 1024.8,398.49 	"/>
	<polygon class="st6" points="480.6,412 387.62,412.27 132.72,412 133.67,411.43 	"/>
	<polygon class="st6" points="230.76,420 265.84,419.65 133.67,419.43 132.91,419.89 	"/>
	<polygon class="st6" points="234.85,420 225.96,420.09 144.97,420 146.41,419.9 	"/>
	<polygon class="st6" points="1123.36,420 1092.9,420.03 1093.25,419.85 1129.65,419.81 	"/>
	<polygon class="st6" points="1102.93,420 1111.45,419.99 1111.27,420 1102.83,420.01 	"/>
	<polygon class="st6" points="611.04,668.56 739.57,733.15 1111.27,420.58 1090.54,420 	"/>
	<polygon class="st1" points="320.12,343.79 210.02,388.75 210.02,383.31 320.12,330.77 	"/>
	<rect x="320.12" y="330.77" class="st1" width="59.52" height="14.01"/>
	<polygon class="st1" points="611.04,180.64 480.6,245.96 480.6,238.94 611.04,171 	"/>
	<polygon class="st16" points="611.04,191 480.6,253.5 480.6,245.96 611.04,180.64 	"/>
	
		<rect x="640.36" y="155.97" transform="matrix(0.4619 -0.8869 0.8869 0.4619 179.3479 668.1658)" class="st1" width="0" height="60.6"/>
	<polygon class="st1" points="730.94,240.81 610.48,181.77 610.48,172.14 730.94,233.56 	"/>
	<polygon class="st16" points="730.94,248.45 611.04,190.75 611.04,180.64 730.94,240.95 	"/>
	<rect x="730.94" y="254.17" class="st17" width="36.5" height="5.11"/>
	<polygon class="st17" points="863.39,306.6 767.44,258.37 767.44,254.17 863.39,303.64 	"/>
	<polygon class="st12" points="1024.8,402.94 897.65,368.26 897.65,355.28 1024.8,398.49 	"/>
	<rect x="863.39" y="355.28" class="st12" width="34.26" height="11.57"/>
	<polygon class="st2" points="667.2,292.23 631.41,281.35 631.41,224.02 667.2,239.36 	"/>
	<polygon class="st18" points="648.74,259.03 635.56,254.21 635.56,233.97 648.74,239.38 	"/>
	<polygon class="st18" points="664.92,264.96 652.69,260.48 652.69,241 664.92,246.02 	"/>
	<polygon class="st18" points="648.74,284.47 635.56,280.4 635.56,260.16 648.74,264.82 	"/>
	<polygon class="st18" points="664.92,289.46 652.69,285.69 652.69,266.21 664.92,270.53 	"/>
	<polygon class="st2" points="715.92,307.03 688.15,298.59 688.15,248.34 715.92,260.24 	"/>
	<polygon class="st18" points="701.53,278.36 691.34,274.63 691.34,256.87 701.53,261.06 	"/>
	<polygon class="st18" points="714.13,282.98 704.6,279.49 704.6,262.32 714.13,266.23 	"/>
	<polygon class="st18" points="701.53,300.76 691.34,297.62 691.34,279.86 701.53,283.46 	"/>
	<polygon class="st18" points="714.13,304.65 704.6,301.71 704.6,284.54 714.13,287.9 	"/>
	<polygon class="st2" points="667.15,363.75 631.35,358.92 631.35,301.59 667.15,310.89 	"/>
	<polygon class="st18" points="648.69,333.67 635.5,331.07 635.5,310.83 648.69,314.02 	"/>
	<polygon class="st18" points="664.87,336.87 652.64,334.45 652.64,314.98 664.87,317.93 	"/>
	<polygon class="st18" points="648.69,359.11 635.5,357.27 635.5,337.03 648.69,339.46 	"/>
	<polygon class="st18" points="664.87,361.37 652.64,359.66 652.64,340.18 664.87,342.44 	"/>
	<polygon class="st2" points="715.88,370.33 688.11,366.58 688.11,316.33 715.88,323.54 	"/>
	<polygon class="st18" points="701.49,344.1 691.3,342.09 691.3,324.33 701.49,326.79 	"/>
	<polygon class="st18" points="714.09,346.59 704.55,344.7 704.55,327.53 714.09,329.84 	"/>
	<polygon class="st18" points="701.49,366.5 691.3,365.07 691.3,347.31 701.49,349.19 	"/>
	<polygon class="st18" points="714.09,368.26 704.55,366.93 704.55,349.76 714.09,351.51 	"/>
	<polygon class="st2" points="667.15,431.18 631.35,432.04 631.35,374.71 667.15,378.31 	"/>
	<polygon class="st18" points="648.69,404.04 635.5,403.54 635.5,383.3 648.69,384.39 	"/>
	<polygon class="st18" points="664.87,404.66 652.64,404.19 652.64,384.71 664.87,385.73 	"/>
	<polygon class="st18" points="648.69,429.48 635.5,429.73 635.5,409.49 648.69,409.82 	"/>
	<polygon class="st18" points="664.87,429.17 652.64,429.4 652.64,409.92 664.87,410.23 	"/>
	<polygon class="st2" points="715.88,430.01 688.11,430.68 688.11,380.42 715.88,383.22 	"/>
	<polygon class="st18" points="701.49,406.07 691.3,405.67 691.3,387.91 701.49,388.76 	"/>
	<polygon class="st18" points="714.09,406.55 704.55,406.18 704.55,389.01 714.09,389.8 	"/>
	<polygon class="st18" points="701.49,428.47 691.3,428.66 691.3,410.9 701.49,411.16 	"/>
	<polygon class="st18" points="714.09,428.22 704.55,428.41 704.55,411.23 714.09,411.48 	"/>
	<polygon class="st2" points="524.51,302.24 495.21,311.08 495.21,260.54 524.51,247.62 	"/>
	<polygon class="st18" points="508.24,280.97 498.15,284.72 498.15,266.56 508.24,262.32 	"/>
	<polygon class="st18" points="522.34,275.74 511.49,279.76 511.49,260.95 522.34,256.39 	"/>
	<polygon class="st18" points="508.24,305.11 498.15,308.21 498.15,290.06 508.24,286.46 	"/>
	<polygon class="st18" points="522.34,300.78 511.49,304.11 511.49,285.3 522.34,281.43 	"/>
	<polygon class="st2" points="585.48,283.84 546.84,295.5 546.84,237.78 585.48,220.76 	"/>
	<polygon class="st18" points="563.92,260.3 550.69,265.21 550.69,244.46 563.92,238.9 	"/>
	<polygon class="st18" points="582.59,253.37 568.21,258.71 568.21,237.09 582.59,231.04 	"/>
	<polygon class="st18" points="563.92,288 550.69,292.07 550.69,271.32 563.92,266.6 	"/>
	<polygon class="st18" points="582.59,282.27 568.21,286.68 568.21,265.07 582.59,259.94 	"/>
	<polygon class="st2" points="524.46,376.15 495.17,379.49 495.17,328.95 524.46,321.54 	"/>
	<polygon class="st18" points="508.2,351.83 498.11,353.68 498.11,335.53 508.2,333.18 	"/>
	<polygon class="st18" points="522.29,349.25 511.45,351.23 511.45,332.42 522.29,329.9 	"/>
	<polygon class="st18" points="508.2,375.97 498.11,377.17 498.11,359.02 508.2,357.32 	"/>
	<polygon class="st18" points="522.29,374.28 511.45,375.58 511.45,356.77 522.29,354.94 	"/>
	<polygon class="st2" points="585.42,369.2 546.79,373.61 546.79,315.9 585.42,306.13 	"/>
	<polygon class="st18" points="563.86,341.62 550.63,344.05 550.63,323.3 563.86,320.22 	"/>
	<polygon class="st18" points="582.52,338.2 568.15,340.84 568.15,319.22 582.52,315.87 	"/>
	<polygon class="st18" points="563.86,369.32 550.63,370.9 550.63,350.15 563.86,347.92 	"/>
	<polygon class="st18" points="582.52,367.09 568.15,368.81 568.15,347.19 582.52,344.77 	"/>
	<polygon class="st2" points="524.46,445.8 495.17,443.95 495.17,393.41 524.46,391.19 	"/>
	<polygon class="st18" points="508.2,418.6 498.11,418.66 498.11,400.51 508.2,399.95 	"/>
	<polygon class="st18" points="522.29,418.51 511.45,418.58 511.45,399.77 522.29,399.16 	"/>
	<polygon class="st18" points="508.2,442.73 498.11,442.15 498.11,424 508.2,424.09 	"/>
	<polygon class="st18" points="522.29,443.55 511.45,442.92 511.45,424.11 522.29,424.2 	"/>
	<polygon class="st2" points="585.42,449.64 546.79,447.21 546.79,389.5 585.42,386.57 	"/>
	<polygon class="st18" points="563.86,418.24 550.63,418.33 550.63,397.58 563.86,396.84 	"/>
	<polygon class="st18" points="582.52,418.13 568.15,418.22 568.15,396.6 582.52,395.8 	"/>
	<polygon class="st18" points="563.86,445.94 550.63,445.18 550.63,424.43 563.86,424.54 	"/>
	<polygon class="st18" points="582.52,447.02 568.15,446.19 568.15,424.58 582.52,424.69 	"/>
	<polygon class="st2" points="585.42,530.08 546.79,520.81 546.79,463.1 585.42,467.01 	"/>
	<polygon class="st18" points="563.86,494.87 550.63,492.61 550.63,471.86 563.86,473.47 	"/>
	<polygon class="st18" points="582.52,498.05 568.15,495.6 568.15,473.99 582.52,475.73 	"/>
	<polygon class="st18" points="563.86,522.57 550.63,519.46 550.63,498.71 563.86,501.16 	"/>
	<polygon class="st19" points="529.95,614.34 495.9,597.51 495.9,477.83 529.95,487.05 	"/>
	<polygon class="st18" points="582.52,526.94 568.15,523.57 568.15,501.96 582.52,504.62 	"/>
	<polygon class="st18" points="526.74,607.96 498.98,594.48 498.98,485.88 526.74,493.77 	"/>
	<polyline class="st19" points="498.98,524.23 501.05,524.97 501.05,529.16 	"/>
	<polygon class="st19" points="640.16,491.7 677.98,491.29 677.98,624.15 640.16,649.18 	"/>
	<polygon class="st18" points="644.09,497.52 674.88,496.43 674.88,618.12 644.09,637.29 	"/>
	<polyline class="st19" points="674.88,547.09 672.77,547.68 672.77,542.96 	"/>
	<path class="st20" d="M365.62,404.19l-2.98,0.21c-2.41,0.17-4.32-5.36-4.32-12.35v-20.47c0-6.99,1.91-13.19,4.32-13.84l2.98-0.81
		c2.52-0.69,4.61,4.71,4.61,12.07v21.54C370.23,397.89,368.14,404,365.62,404.19z"/>
	<polygon class="st21" points="368.64,397.29 359.98,398.16 359.98,364.12 368.64,361.97 	"/>
	<polygon class="st20" points="370.23,375.78 358.32,378.03 358.32,374.03 370.23,371.57 	"/>
	<polygon class="st20" points="363.4,400.71 364.97,400.57 364.97,362.88 363.4,363.27 	"/>
	<path class="st20" d="M386.49,402.69l-3.53,0.25c-2.84,0.2-5.1-5.79-5.1-13.39v-22.23c0-7.6,2.26-14.37,5.1-15.15l3.53-0.96
		c2.99-0.82,5.47,5.01,5.47,13.04v23.5C391.96,395.79,389.48,402.47,386.49,402.69z"/>
	<polygon class="st21" points="390.07,395.15 379.81,396.18 379.81,359.19 390.07,356.64 	"/>
	<polygon class="st20" points="391.96,371.67 377.86,374.34 377.86,369.99 391.96,367.08 	"/>
	<polygon class="st20" points="383.86,398.92 385.72,398.76 385.72,357.73 383.86,358.19 	"/>
	<path class="st20" d="M413.87,400.25l-4.32,0.32c-3.47,0.25-6.22-6.34-6.22-14.71v-24.52c0-8.38,2.75-15.93,6.22-16.88l4.32-1.19
		c3.67-1.01,6.72,5.38,6.72,14.29v26.07C420.59,392.53,417.54,399.98,413.87,400.25z"/>
	<polygon class="st21" points="418.26,391.86 405.7,393.13 405.7,352.3 418.26,349.15 	"/>
	<polygon class="st20" points="420.59,365.77 403.32,369.06 403.32,364.27 420.59,360.67 	"/>
	<polygon class="st20" points="410.65,396.11 412.92,395.91 412.92,350.49 410.65,351.06 	"/>
	<path class="st20" d="M365.71,466.15l-2.98-0.57c-2.41-0.46-4.32-6.5-4.32-13.5V431.6c0-7,1.92-12.69,4.32-12.71l2.98-0.03
		c2.52-0.02,4.61,5.93,4.61,13.29v21.55C370.32,461.07,368.23,466.64,365.71,466.15z"/>
	<polygon class="st21" points="368.72,460.05 360.06,458.63 360.06,424.58 368.72,424.72 	"/>
	<polygon class="st20" points="370.32,438.95 358.4,438.06 358.4,434.06 370.32,434.74 	"/>
	<polygon class="st20" points="363.49,462.09 365.05,462.36 365.05,424.66 363.49,424.63 	"/>
	<path class="st20" d="M386.59,462.17l-3.53-0.68c-2.85-0.55-5.11-7.14-5.11-14.74v-22.23c0-7.6,2.26-13.78,5.11-13.8l3.53-0.03
		c3-0.03,5.48,6.46,5.48,14.49v23.51C392.07,456.71,389.59,462.75,386.59,462.17z"/>
	<polygon class="st21" points="390.17,455.58 379.91,453.89 379.91,416.89 390.17,417.05 	"/>
	<polygon class="st20" points="392.07,432.59 377.95,431.53 377.95,427.18 392.07,427.99 	"/>
	<polygon class="st20" points="383.96,457.71 385.82,458.03 385.82,416.98 383.96,416.95 	"/>
	<path class="st20" d="M413.99,474.96l-4.32-0.82c-3.48-0.66-6.23-7.98-6.23-16.37v-24.53c0-8.38,2.75-15.21,6.23-15.24l4.32-0.05
		c3.68-0.04,6.73,7.15,6.73,16.07v26.09C420.72,469.02,417.67,475.66,413.99,474.96z"/>
	<polygon class="st21" points="418.39,467.73 405.82,465.68 405.82,424.83 418.39,425.01 	"/>
	<polygon class="st20" points="420.72,442.25 403.44,440.98 403.44,436.18 420.72,437.15 	"/>
	<polygon class="st20" points="410.77,469.97 413.04,470.37 413.04,424.93 410.77,424.9 	"/>
	<path class="st20" d="M365.71,528.12l-2.98-1.36c-2.41-1.1-4.32-7.65-4.32-14.64v-20.47c0-7,1.92-12.18,4.32-11.57l2.98,0.76
		c2.52,0.64,4.61,7.14,4.61,14.51v21.55C370.32,524.26,368.23,529.28,365.71,528.12z"/>
	<polygon class="st21" points="368.72,522.82 360.06,519.11 360.06,485.06 368.72,487.49 	"/>
	<polygon class="st20" points="370.32,502.14 358.4,498.1 358.4,494.1 370.32,497.93 	"/>
	<polygon class="st20" points="363.49,523.47 365.05,524.16 365.05,486.46 363.49,486.02 	"/>
	<path class="st20" d="M413.99,549.69l-4.32-1.97c-3.48-1.58-6.23-9.63-6.23-18.01v-24.53c0-8.38,2.75-14.48,6.23-13.6l4.32,1.1
		c3.68,0.93,6.73,8.93,6.73,17.84v26.09C420.72,545.52,417.67,551.36,413.99,549.69z"/>
	<polygon class="st21" points="418.39,543.61 405.82,538.25 405.82,497.4 418.39,500.89 	"/>
	<polygon class="st20" points="420.72,518.75 403.44,512.92 403.44,508.12 420.72,513.65 	"/>
	<polygon class="st20" points="410.77,543.84 413.04,544.84 413.04,499.41 410.77,498.77 	"/>
	<path class="st20" d="M925.11,409.73l-9.31-0.47c-4.35-0.22-7.82-2.65-7.64-5.43l0.45-6.75c0.18-2.77,3.94-4.65,8.28-4.2l9.28,0.96
		c3.98,0.41,6.98,2.81,6.81,5.38l-0.41,6.24C932.4,408.02,929.1,409.94,925.11,409.73z"/>
	<polygon class="st21" points="929.5,407.76 911.78,406.73 912.6,394.49 930.26,396.2 	"/>
	<polygon class="st20" points="932.86,401.06 908.48,399.07 908.58,397.6 932.95,399.7 	"/>
	<polygon class="st20" points="919.13,408.16 922.33,408.34 923.18,395.51 919.99,395.2 	"/>
	<path class="st20" d="M969.82,412.01l-6.75-0.34c-3.13-0.16-5.6-2.19-5.45-4.54l0.38-5.71c0.16-2.35,2.87-3.98,5.99-3.66l6.72,0.7
		c2.9,0.3,5.09,2.32,4.94,4.51l-0.35,5.34C975.16,410.5,972.73,412.16,969.82,412.01z"/>
	<polygon class="st21" points="973.03,410.3 960.19,409.55 960.88,399.17 973.69,400.41 	"/>
	<polygon class="st20" points="975.55,404.54 957.89,403.1 957.97,401.86 975.63,403.38 	"/>
	<polygon class="st20" points="965.48,410.71 967.8,410.84 968.53,399.91 966.21,399.69 	"/>
	<path class="st20" d="M1004.41,413.67l-5.05-0.26c-2.34-0.12-4.15-1.86-4.02-3.88l0.33-4.92c0.13-2.02,2.16-3.46,4.49-3.22
		l5.03,0.52c2.18,0.23,3.82,1.95,3.69,3.86l-0.31,4.64C1008.45,412.33,1006.6,413.79,1004.41,413.67z"/>
	<polygon class="st21" points="1006.84,412.17 997.23,411.61 997.83,402.65 1007.42,403.59 	"/>
	<polygon class="st20" points="1008.79,407.15 995.57,406.07 995.64,405 1008.86,406.14 	"/>
	<polygon class="st20" points="1001.17,412.58 1002.91,412.67 1003.54,403.21 1001.8,403.04 	"/>
	<path class="st20" d="M923.9,439.56l-9.34,0.16c-4.37,0.08-7.85-2.11-7.66-4.88l0.45-6.74c0.18-2.77,3.95-4.89,8.3-4.74l9.31,0.32
		c3.99,0.14,7.01,2.32,6.84,4.89l-0.41,6.23C931.21,437.36,927.9,439.49,923.9,439.56z"/>
	<polygon class="st21" points="928.29,437.3 910.52,437.48 911.33,425.24 929.06,425.74 	"/>
	<polygon class="st20" points="931.67,430.4 907.21,430.08 907.3,428.61 931.76,429.04 	"/>
	<polygon class="st20" points="917.89,438.4 921.1,438.36 921.96,425.54 918.75,425.45 	"/>
	<path class="st20" d="M968.76,438.78l-6.77,0.12c-3.15,0.05-5.62-1.8-5.47-4.15l0.38-5.71c0.16-2.35,2.88-4.16,6.01-4.05l6.75,0.23
		c2.91,0.1,5.1,1.96,4.96,4.15l-0.35,5.34C974.12,436.91,971.68,438.73,968.76,438.78z"/>
	<polygon class="st21" points="971.98,436.86 959.1,436.99 959.79,426.61 972.64,426.98 	"/>
	<polygon class="st20" points="974.51,430.95 956.79,430.72 956.87,429.48 974.59,429.79 	"/>
	<polygon class="st20" points="964.4,437.78 966.74,437.75 967.46,426.83 965.14,426.76 	"/>
	<path class="st20" d="M1003.48,438.08l-5.07,0.09c-2.34,0.04-4.17-1.57-4.04-3.59l0.33-4.92c0.13-2.02,2.17-3.59,4.51-3.51
		l5.05,0.18c2.19,0.08,3.83,1.68,3.71,3.59l-0.31,4.64C1007.53,436.47,1005.68,438.04,1003.48,438.08z"/>
	<polygon class="st21" points="1005.92,436.42 996.27,436.51 996.87,427.56 1006.49,427.84 	"/>
	<polygon class="st20" points="1007.87,431.29 994.6,431.11 994.67,430.04 1007.94,430.28 	"/>
	<polygon class="st20" points="1000.22,437.21 1001.97,437.19 1002.6,427.73 1000.86,427.68 	"/>
	<path class="st20" d="M922.51,465.37l-9.38,0.8c-4.39,0.37-7.89-1.56-7.7-4.34l0.45-6.74c0.18-2.77,3.97-5.14,8.34-5.29l9.35-0.31
		c4.01-0.13,7.04,1.84,6.87,4.4l-0.41,6.23C929.86,462.68,926.53,465.03,922.51,465.37z"/>
	<polygon class="st21" points="926.93,462.83 909.07,464.22 909.89,451.98 927.7,451.27 	"/>
	<polygon class="st20" points="930.32,455.73 905.75,457.08 905.84,455.61 930.41,454.37 	"/>
	<polygon class="st20" points="916.48,464.63 919.71,464.37 920.56,451.55 917.34,451.68 	"/>
	<path class="st20" d="M1002.46,458.48l-5.09,0.43c-2.35,0.2-4.19-1.27-4.06-3.3l0.33-4.92c0.13-2.02,2.18-3.72,4.53-3.8l5.08-0.17
		c2.2-0.07,3.85,1.42,3.72,3.32l-0.31,4.64C1006.53,456.6,1004.66,458.29,1002.46,458.48z"/>
	<polygon class="st21" points="1004.91,456.66 995.21,457.41 995.81,448.46 1005.48,448.08 	"/>
	<polygon class="st20" points="1006.87,451.42 993.54,452.14 993.61,451.08 1006.94,450.41 	"/>
	<polygon class="st20" points="999.18,457.83 1000.94,457.69 1001.57,448.23 999.82,448.3 	"/>
	<polygon class="st20" points="397.28,560.24 372.6,547.39 372.6,462.47 397.28,465.84 	"/>
	<path class="st21" d="M388.26,541.18l-7.49-3.5c-3.19-1.49-5.71-9.61-5.71-18.18v-38.21c0-8.57,2.52-15.05,5.71-14.47l7.49,1.37
		c3.47,0.64,6.35,8.67,6.35,17.92v41.27C394.61,536.64,391.73,542.8,388.26,541.18z"/>
	<polygon class="st20" points="396.61,499.23 373.5,492.37 373.5,485.42 396.61,491.51 	"/>
	<polygon class="st20" points="382.61,544.51 386.14,546.25 386.14,467.81 382.61,467.16 	"/>
	<polygon class="st20" points="972.64,483.5 958.8,486.88 958.8,441.61 972.64,440.7 	"/>
	<path class="st22" d="M966.65,477.2l-0.32,0.17c-0.88,0.47-1.61-3.07-1.61-7.91v-12.39c0-4.84,0.73-8.93,1.61-9.13l0.32-0.07
		c0.86-0.2,1.55,3.43,1.55,8.1v11.96C968.2,472.6,967.51,476.75,966.65,477.2z"/>
	<polygon class="st1" points="965.64,469 966.73,468.52 966.73,458.73 965.64,459.1 	"/>
	<polygon class="st20" points="968.94,461.13 963.67,463.1 963.67,458.17 968.94,456.45 	"/>
	<polygon class="st23" points="966.33,478.23 966.68,478.04 966.68,443.05 966.33,443.11 	"/>
	<polygon class="st24" points="802.02,319.93 789.85,315.67 789.85,281.72 802.02,287.35 	"/>
	<polygon class="st25" points="795.35,311.82 791.63,310.45 791.63,289.23 795.35,290.87 	"/>
	<polygon class="st25" points="799.8,313.46 796.19,312.13 796.19,291.24 799.8,292.83 	"/>
	<polygon class="st24" points="819.02,324.36 808.27,320.54 808.27,288.67 819.02,293.7 	"/>
	<polygon class="st25" points="813.13,316.83 809.84,315.6 809.84,295.68 813.13,297.14 	"/>
	<polygon class="st25" points="817.06,318.31 813.87,317.11 813.87,297.47 817.06,298.89 	"/>
	<polygon class="st24" points="834.14,328.29 824.57,324.84 824.57,294.81 834.14,299.34 	"/>
	<polygon class="st25" points="828.89,321.28 825.97,320.17 825.97,301.38 828.89,302.7 	"/>
	<polygon class="st25" points="832.39,322.61 829.55,321.53 829.55,303 832.39,304.28 	"/>
	<polygon class="st24" points="847.66,331.82 839.1,328.68 839.1,300.28 847.66,304.38 	"/>
	<polygon class="st25" points="842.96,325.25 840.34,324.24 840.34,306.47 842.96,307.67 	"/>
	<polygon class="st25" points="846.1,326.46 843.55,325.47 843.55,307.94 846.1,309.1 	"/>
	<polygon class="st24" points="802.02,364.6 789.85,362.22 789.85,328.28 802.02,332.02 	"/>
	<polygon class="st25" points="795.35,357.52 791.63,356.72 791.63,335.51 795.35,336.57 	"/>
	<polygon class="st25" points="799.8,358.48 796.19,357.7 796.19,336.81 799.8,337.84 	"/>
	<polygon class="st24" points="819.02,366.4 808.27,364.24 808.27,332.37 819.02,335.74 	"/>
	<polygon class="st25" points="813.13,359.79 809.84,359.06 809.84,339.14 813.13,340.09 	"/>
	<polygon class="st25" points="817.06,360.65 813.87,359.95 813.87,340.31 817.06,341.24 	"/>
	<polygon class="st24" points="834.14,368 824.57,366.03 824.57,335.99 834.14,339.04 	"/>
	<polygon class="st25" points="828.89,361.8 825.97,361.14 825.97,342.35 828.89,343.22 	"/>
	<polygon class="st25" points="832.39,362.59 829.55,361.95 829.55,343.42 832.39,344.26 	"/>
	<polygon class="st24" points="847.66,369.43 839.1,367.62 839.1,339.22 847.66,342 	"/>
	<polygon class="st25" points="842.96,363.59 840.34,362.98 840.34,345.22 842.96,346.01 	"/>
	<polygon class="st25" points="846.1,364.32 843.55,363.73 843.55,346.19 846.1,346.96 	"/>
	<polygon class="st24" points="801.6,409.25 789.41,408.76 789.41,374.76 801.6,376.63 	"/>
	<polygon class="st25" points="794.92,403.2 791.19,402.97 791.19,381.73 794.92,382.21 	"/>
	<polygon class="st25" points="799.38,403.47 795.76,403.25 795.76,382.32 799.38,382.8 	"/>
	<polygon class="st24" points="818.66,408.42 807.88,407.93 807.88,376.01 818.66,377.72 	"/>
	<polygon class="st25" points="812.75,402.72 809.45,402.5 809.45,382.55 812.75,383 	"/>
	<polygon class="st25" points="816.69,402.98 813.49,402.77 813.49,383.1 816.69,383.53 	"/>
	<polygon class="st24" points="833.81,407.69 824.22,407.19 824.22,377.12 833.81,378.7 	"/>
	<polygon class="st25" points="828.55,402.29 825.62,402.08 825.62,383.27 828.55,383.69 	"/>
	<polygon class="st25" points="832.06,402.54 829.21,402.34 829.21,383.78 832.06,384.19 	"/>
	<polygon class="st24" points="847.37,407.03 838.78,406.54 838.78,378.1 847.37,379.57 	"/>
	<polygon class="st25" points="842.65,401.91 840.03,401.71 840.03,383.92 842.65,384.31 	"/>
	<polygon class="st25" points="845.8,402.15 843.24,401.96 843.24,384.4 845.8,384.77 	"/>
	<polygon class="st24" points="801.6,453.99 789.41,455.38 789.41,421.38 801.6,421.36 	"/>
	<polygon class="st25" points="794.92,448.97 791.19,449.32 791.19,428.07 794.92,427.98 	"/>
	<polygon class="st25" points="799.38,448.54 795.76,448.89 795.76,427.96 799.38,427.88 	"/>
	<polygon class="st24" points="818.66,450.52 807.88,451.69 807.88,419.78 818.66,419.82 	"/>
	<polygon class="st25" points="812.75,445.73 809.45,446.02 809.45,426.07 812.75,426.01 	"/>
	<polygon class="st25" points="816.69,445.38 813.49,445.66 813.49,426 816.69,425.94 	"/>
	<polygon class="st24" points="833.81,447.45 824.22,448.43 824.22,418.36 833.81,418.45 	"/>
	<polygon class="st25" points="828.55,442.86 825.62,443.1 825.62,424.3 828.55,424.26 	"/>
	<polygon class="st25" points="832.06,442.57 829.21,442.81 829.21,424.25 832.06,424.22 	"/>
	<polygon class="st24" points="847.37,444.69 838.78,445.53 838.78,417.09 847.37,417.23 	"/>
	<polygon class="st25" points="842.65,440.3 840.03,440.5 840.03,422.72 842.65,422.7 	"/>
	<polygon class="st25" points="845.8,440.06 843.24,440.25 843.24,422.69 845.8,422.68 	"/>
	<polygon class="st24" points="801.74,501.91 789.55,505.32 789.55,471.34 801.74,469.3 	"/>
	<polygon class="st25" points="795.07,498 791.34,498.97 791.34,477.73 795.07,477.03 	"/>
	<polygon class="st25" points="799.52,496.84 795.91,497.78 795.91,476.87 799.52,476.18 	"/>
	<polygon class="st24" points="818.78,495.63 808.01,498.58 808.01,466.68 818.78,464.94 	"/>
	<polygon class="st25" points="812.88,491.81 809.58,492.65 809.58,472.71 812.88,472.1 	"/>
	<polygon class="st25" points="816.82,490.81 813.62,491.63 813.62,471.97 816.82,471.38 	"/>
	<polygon class="st24" points="833.92,490.04 824.34,492.62 824.34,462.56 833.92,461.06 	"/>
	<polygon class="st25" points="828.66,486.33 825.74,487.06 825.74,468.26 828.66,467.74 	"/>
	<polygon class="st25" points="832.17,485.46 829.32,486.17 829.32,467.62 832.17,467.11 	"/>
	<polygon class="st24" points="847.47,485.05 838.89,487.3 838.89,458.88 847.47,457.59 	"/>
	<polygon class="st25" points="842.75,481.44 840.13,482.08 840.13,464.3 842.75,463.84 	"/>
	<polygon class="st25" points="845.9,480.67 843.34,481.29 843.34,463.74 845.9,463.3 	"/>
	<polygon class="st24" points="801.74,546.63 789.55,551.92 789.55,517.94 801.74,514.02 	"/>
	<polygon class="st25" points="795.07,543.75 791.34,545.29 791.34,524.05 795.07,522.77 	"/>
	<polygon class="st25" points="799.52,541.9 795.91,543.4 795.91,522.48 799.52,521.24 	"/>
	<polygon class="st24" points="847.47,522.69 838.89,526.28 838.89,497.85 847.47,495.24 	"/>
	<polygon class="st25" points="842.75,519.81 840.13,520.86 840.13,503.08 842.75,502.22 	"/>
	<polygon class="st25" points="845.9,518.56 843.34,519.58 843.34,502.03 845.9,501.19 	"/>
	<polygon class="st16" points="826,551.22 816.37,556.41 816.37,504.1 826,501.62 	"/>
	<polygon class="st25" points="824.67,548.25 817.46,551.99 817.46,509.41 824.67,507.34 	"/>
	<path class="st16" d="M818.34,531.36L818.34,531.36c-0.49,0.2-0.88-0.62-0.88-1.82l0,0c0-1.21,0.4-2.34,0.88-2.53l0,0
		c0.48-0.19,0.87,0.63,0.87,1.83l0,0C819.22,530.03,818.83,531.16,818.34,531.36z"/>
	<polygon class="st2" points="225.45,409.52 213.92,412.27 213.92,404.35 225.45,401.38 	"/>
	<polygon class="st26" points="222.9,409.15 215.99,410.81 215.99,405.06 222.9,403.3 	"/>
	<polygon class="st27" points="218.92,410.1 220.27,409.78 220.27,403.97 218.92,404.32 	"/>
	<polygon class="st2" points="244.88,404.66 232.28,407.67 232.28,399.4 244.88,396.15 	"/>
	<polygon class="st26" points="242.09,404.3 234.54,406.12 234.54,400.12 242.09,398.19 	"/>
	<polygon class="st27" points="237.74,405.35 239.21,404.99 239.21,398.93 237.74,399.3 	"/>
	<polygon class="st2" points="267.36,399.24 253.47,402.56 253.47,393.88 267.36,390.3 	"/>
	<polygon class="st26" points="264.28,398.9 255.96,400.91 255.96,394.61 264.28,392.48 	"/>
	<polygon class="st27" points="259.49,400.06 261.11,399.67 261.11,393.29 259.49,393.71 	"/>
	<polygon class="st2" points="290.92,393.3 275.62,396.97 275.62,387.87 290.92,383.91 	"/>
	<polygon class="st26" points="287.52,392.99 278.35,395.21 278.35,388.6 287.52,386.25 	"/>
	<polygon class="st27" points="282.24,394.27 284.03,393.83 284.03,387.15 282.24,387.6 	"/>
	<polygon class="st2" points="316.99,387.05 300.04,391.11 300.04,381.54 316.99,377.15 	"/>
	<polygon class="st26" points="313.22,386.76 303.07,389.22 303.07,382.26 313.22,379.67 	"/>
	<polygon class="st27" points="307.37,388.18 309.35,387.7 309.35,380.66 307.37,381.16 	"/>
	<polygon class="st2" points="225.24,398.09 213.72,401.15 213.72,393.24 225.24,389.96 	"/>
	<polygon class="st26" points="222.69,397.79 215.78,399.64 215.78,393.89 222.69,391.95 	"/>
	<polygon class="st27" points="218.72,398.85 220.06,398.49 220.06,392.69 218.72,393.07 	"/>
	<polygon class="st2" points="244.65,392.71 232.06,396.06 232.06,387.79 244.65,384.2 	"/>
	<polygon class="st26" points="241.86,392.43 234.32,394.45 234.32,388.45 241.86,386.32 	"/>
	<polygon class="st27" points="237.52,393.59 238.98,393.2 238.98,387.13 237.52,387.55 	"/>
	<polygon class="st2" points="267.11,386.69 253.23,390.38 253.23,381.71 267.11,377.75 	"/>
	<polygon class="st26" points="264.03,386.43 255.71,388.66 255.71,382.37 264.03,380.02 	"/>
	<polygon class="st27" points="259.24,387.72 260.86,387.28 260.86,380.92 259.24,381.37 	"/>
	<polygon class="st2" points="290.64,380.12 275.35,384.2 275.35,375.1 290.64,370.73 	"/>
	<polygon class="st26" points="287.25,379.9 278.08,382.36 278.08,375.76 287.25,373.17 	"/>
	<polygon class="st27" points="281.97,381.32 283.75,380.84 283.75,374.15 281.97,374.66 	"/>
	<polygon class="st2" points="316.68,373.17 299.75,377.68 299.75,368.12 316.68,363.28 	"/>
	<polygon class="st26" points="312.92,372.98 302.77,375.71 302.77,368.76 312.92,365.89 	"/>
	<polygon class="st27" points="307.07,374.56 309.04,374.03 309.04,366.99 307.07,367.55 	"/>
	<path class="st1" d="M818.34,529.97L818.34,529.97c-0.18,0.07-0.32-0.23-0.32-0.66l0,0c0-0.44,0.14-0.85,0.32-0.92l0,0
		c0.18-0.07,0.32,0.23,0.32,0.66l0,0C818.66,529.49,818.52,529.9,818.34,529.97z"/>
	<path class="st28" d="M222.37,429.65L222.37,429.65c-3.3,0.57-5.96-2.18-5.96-6.14v-1.71c0-1.83,1.23-3.54,2.75-3.83l6.45-1.2
		c1.55-0.29,2.8,0.98,2.8,2.84v1.74C228.41,425.36,225.7,429.08,222.37,429.65z"/>
	<path class="st29" d="M222.18,427.74L222.18,427.74c-1.92,0.34-3.48-1.27-3.48-3.58v-4.18l6.98-1.28v4.22
		C225.69,425.25,224.12,427.41,222.18,427.74z"/>
	<path class="st28" d="M238.89,426.81L238.89,426.81c-3.43,0.59-6.19-2.21-6.19-6.24v-1.75c0-1.87,1.27-3.62,2.85-3.91l6.7-1.25
		c1.61-0.3,2.91,0.99,2.91,2.88v1.77C245.16,422.42,242.34,426.22,238.89,426.81z"/>
	<path class="st29" d="M238.69,424.87L238.69,424.87c-2,0.35-3.61-1.28-3.61-3.63v-4.26l7.25-1.33v4.3
		C242.33,422.31,240.7,424.52,238.69,424.87z"/>
	<path class="st28" d="M255.22,423.52L255.22,423.52c-3.55,0.61-6.42-2.22-6.42-6.33v-1.78c0-1.9,1.32-3.69,2.96-3.99l6.95-1.3
		c1.67-0.31,3.02,1,3.02,2.93v1.8C261.73,419.02,258.8,422.9,255.22,423.52z"/>
	<path class="st29" d="M255.02,421.54L255.02,421.54c-2.07,0.36-3.74-1.29-3.74-3.69v-4.34l7.52-1.39v4.38
		C258.79,418.92,257.1,421.18,255.02,421.54z"/>
	<path class="st28" d="M273.02,420.45L273.02,420.45c-3.7,0.64-6.67-2.24-6.67-6.43v-1.81c0-1.94,1.37-3.76,3.07-4.08l7.22-1.35
		c1.73-0.32,3.14,1.01,3.14,2.97v1.84C279.79,415.83,276.74,419.8,273.02,420.45z"/>
	<path class="st29" d="M272.81,418.43L272.81,418.43c-2.15,0.38-3.89-1.3-3.89-3.75v-4.43l7.82-1.44v4.46
		C276.74,415.75,274.97,418.05,272.81,418.43z"/>
	<path class="st28" d="M289.87,416.84L289.87,416.84c-3.83,0.66-6.91-2.26-6.91-6.52v-1.85c0-1.97,1.42-3.84,3.19-4.17l7.49-1.4
		c1.8-0.34,3.26,1.01,3.26,3.01v1.87C296.88,412.12,293.73,416.17,289.87,416.84z"/>
	<path class="st29" d="M289.65,414.79L289.65,414.79c-2.23,0.39-4.04-1.31-4.04-3.8v-4.51l8.11-1.5v4.55
		C293.72,412.04,291.89,414.4,289.65,414.79z"/>
	<path class="st28" d="M309.07,413.52L309.07,413.52c-3.99,0.69-7.2-2.28-7.2-6.63V405c0-2.01,1.48-3.92,3.32-4.26l7.8-1.46
		c1.87-0.35,3.39,1.02,3.39,3.06v1.91C316.38,408.67,313.09,412.82,309.07,413.52z"/>
	<path class="st29" d="M308.84,411.42L308.84,411.42c-2.33,0.41-4.2-1.32-4.2-3.86v-4.6l8.44-1.56v4.64
		C313.08,408.6,311.18,411.01,308.84,411.42z"/>
	<polygon class="st1" points="251.84,483.45 246.57,481.26 246.57,439.35 251.84,440.1 	"/>
	<polygon class="st30" points="251.15,479.51 247.36,478.02 247.36,442.79 251.15,443.42 	"/>
	<polygon class="st31" points="248.4,463.54 247.36,463.23 247.36,457.81 248.4,458.08 	"/>
	<polygon class="st6" points="1.1,476.18 156.84,1124.73 153.2,1134.12 0,1125.32 	"/>
	<polygon class="st6" points="1389.65,424 1351.79,423.85 1224.17,1133.61 1224.17,1147.32 1389.65,1134.63 	"/>
	<polygon class="st2" points="502.07,740.82 595.59,813.8 578.33,831.27 487.94,751.37 	"/>
	<path class="st2" d="M469.88,765.5c0.11,0.58,91.19,83.22,91.19,83.22l-13.46,13.61l-90.55-86.81L469.88,765.5z"/>
	<polygon class="st2" points="525.78,884.42 510.17,900.21 417.15,806.72 434.66,793.07 	"/>
	<polygon class="st2" points="487.94,922.7 392.68,825.91 375.23,839.57 471.47,939.36 	"/>
	<path class="st2" d="M378.55,1033.36"/>
	<polygon class="st2" points="353.9,855.68 334.25,871.36 428.26,983.07 442.13,969.04 	"/>
	<path class="st2" d="M311.68,888.36c-0.8,0.62-19.47,16.17-19.47,16.17L381.23,1030l17.08-16.63L311.68,888.36z"/>
	<polygon class="st2" points="247.7,939.36 265.81,923.87 350.92,1061.3 331.28,1081.17 	"/>
	<polygon class="st2" points="220.19,959.18 197.23,976.95 276.72,1125.08 287.84,1125.12 299.31,1113.51 	"/>
	<polygon class="st2" points="147.97,1015.08 164.2,1002.52 234.85,1124.96 199.61,1125.32 144.25,1017.96 	"/>
</g>
<g id="Layer_5">
	<polygon class="st2" points="652.95,833.53 759.96,737.27 788.89,755.62 676.74,854.57 	"/>
	<polygon class="st2" points="707.7,877.15 816.09,771.66 844.46,789.92 740.2,903.19 	"/>
	<polygon class="st2" points="887.34,812.3 917.64,830.84 812.24,959.91 781.08,933.26 	"/>
	<polygon class="st2" points="972.21,867.45 999.95,884.35 884.38,1021.66 854.63,998.15 	"/>
	<polygon class="st2" points="928.99,1056.5 1058.76,920.46 1083.06,937.5 953.22,1078.3 	"/>
	<polygon class="st2" points="1125.44,961.73 1155.65,979.33 1013.88,1125.32 984.12,1101.9 	"/>
	<polygon class="st2" points="1193.87,1003.2 1217.76,1017.83 1122.84,1125.12 1079.1,1125.04 	"/>
</g>
<g id="Layer_4">
</g>
<g id="Layer_2">
	<path class="st32" d="M391.57,697.21"/>
</g>
</svg>
